<svg xmlns="http://www.w3.org/2000/svg" width="152" height="47" viewBox="0 0 152 47"><defs><mask id="lyr4b" width="2" height="2" x="-1" y="-1"><path fill="#fff" d="M3 3h145v40H3z"/><path d="M6 3h139a3 3 0 0 1 3 3v34a3 3 0 0 1-3 3H6a3 3 0 0 1-3-3V6a3 3 0 0 1 3-3z"/></mask><filter id="lyr4a" width="175.7" height="70.7" x="-12" y="-12" filterUnits="userSpaceOnUse"><feOffset dx=".7" dy=".7" in="SourceGraphic" result="FeOffset1023Out"/><feGaussianBlur in="FeOffset1023Out" result="FeGaussianBlur1024Out" stdDeviation="2 2"/></filter></defs><g><g><g filter="url(#lyr4a)"><path fill="none" d="M6 3h139a3 3 0 0 1 3 3v34a3 3 0 0 1-3 3H6a3 3 0 0 1-3-3V6a3 3 0 0 1 3-3z" mask="url(&quot;#lyr4b&quot;)"/><path fill-opacity=".05" d="M6 3h139a3 3 0 0 1 3 3v34a3 3 0 0 1-3 3H6a3 3 0 0 1-3-3V6a3 3 0 0 1 3-3z"/></g><path fill="#fff" d="M6 3h139a3 3 0 0 1 3 3v34a3 3 0 0 1-3 3H6a3 3 0 0 1-3-3V6a3 3 0 0 1 3-3z"/></g></g></svg>