<svg width="20" height="16" viewBox="0 0 20 16" fill="none" xmlns="http://www.w3.org/2000/svg">
<path id="Shape" fill-rule="evenodd" clip-rule="evenodd" d="M0.0282354 14.0663C3.74605 12.3701 10.9841 10.5566 19.9789 9.61198L19.873 10.3705C15.5697 10.9359 6.51148 13.3837 2.09525 15.6522L0.0282354 14.0663ZM3.30864 10.7497C4.49383 10.7497 5.57319 10.267 5.93298 10.0119C5.72839 9.71538 5.54497 9.2465 5.51675 8.93622C5.10053 9.1155 4.54321 9.2603 4.08466 9.2603C2.82187 9.2603 2.32804 8.57077 2.32804 7.76403C2.32804 6.32982 3.81658 5.37828 5.62257 5.10247L5.95414 3.98544H5.94709C5.77778 4.01302 5.62257 4.01992 5.46737 4.01992C4.2328 4.01992 3.5485 3.39935 3.5485 2.42712C3.5485 1.61348 4.0776 0.979123 5.00176 0.979123C5.3545 0.979123 5.76367 1.12392 5.91182 1.34457C5.50265 1.42042 5.23457 1.71002 5.23457 2.15131C5.23457 2.61329 5.63668 2.93047 6.10935 2.93047C6.84303 2.93047 7.2381 2.37885 7.2381 1.77207C7.2381 0.524038 5.89771 0 4.92416 0C3.11817 0 1.72839 1.05497 1.72839 2.58571C1.72839 3.67516 2.68078 4.41295 3.72487 4.49569C1.57319 4.94388 0 6.28845 0 8.12258C0 9.33614 0.867725 10.7497 3.30864 10.7497ZM18.8219 4.13024C18.8219 3.76479 19.09 3.48898 19.358 3.36487L18.9207 2.5926C18.06 2.82014 17.157 4.24056 15.351 4.39915C15.097 3.62689 14.5891 3.19938 14.0318 3.19938C13.5309 3.19938 13.1852 3.51656 13.1852 4.0337C13.1852 4.73012 13.7637 5.18521 14.5538 5.27485C14.5961 5.39206 14.6173 5.65408 14.6173 5.92989C14.6173 6.88143 14.0741 8.20532 13.0441 8.20532C12.3739 8.20532 12.0423 7.59164 12.0423 6.86075C12.0423 5.96437 12.388 5.12315 12.7125 4.79218C12.6349 4.55085 12.5926 4.31641 12.5926 4.07508C12.5926 3.86822 12.6279 3.66136 12.7055 3.44761C11.4356 3.94407 10.4409 5.4817 10.4409 7.18482C10.4409 7.23999 10.448 7.41237 10.4692 7.52269C9.96122 8.21221 9.13582 8.72246 8.55733 8.72246C8.13405 8.72246 8.00002 8.41907 8.00002 8.16395C8.00002 8.00536 8.03529 7.74334 8.16227 7.28136L8.86774 4.68186L10.1376 4.55774L10.448 3.4683L9.17815 3.59241L9.75663 1.53074L8.36686 1.95134C8.14111 2.82014 7.85892 3.67515 6.65963 3.8958L6.35628 4.97835C6.58203 4.93698 6.76545 4.9094 7.0688 4.86803C6.82189 5.65408 6.49737 6.85385 6.39155 7.30894C6.27868 7.78471 6.21518 8.15016 6.21518 8.39149C6.21518 9.48094 6.96298 10.067 7.97885 10.067C9.11465 10.067 10.2011 9.2465 10.7231 8.50181C10.9559 9.05343 11.6473 9.55678 12.5432 9.55678C14.1305 9.55678 15.5979 8.02604 15.5979 5.92989C15.5979 5.66098 15.5767 5.39206 15.5415 5.26105C16.1552 5.21279 16.9524 4.96456 17.4109 4.62669C17.3968 4.66807 17.3898 4.73702 17.3898 4.77839C17.3898 5.55065 18.4127 6.59873 18.4127 7.34341C18.4127 8.21911 17.7707 8.5225 17.3545 8.5225C17.2134 8.5225 17.0794 8.50181 17.0159 8.47423C17.0723 8.39149 17.0935 8.226 17.0935 8.13637C17.0935 7.77092 16.7972 7.5089 16.4445 7.5089C16.0494 7.5089 15.7108 7.82608 15.7108 8.25359C15.7108 9.03964 16.4868 9.34303 17.3475 9.34303C18.5538 9.34303 20 8.58456 20 6.99176C20 5.69545 18.8219 4.81976 18.8219 4.13024Z" fill="black"/>
</svg>
